<svg xmlns="http://www.w3.org/2000/svg" viewBox="0 0 64 64" width="64" height="64" role="img" aria-label="poctra">
  <rect x="0" y="0" width="64" height="64" rx="14" ry="14" fill="#000"/>
  <path d="M 34.626 12 C 32 12 29.163 13.129 26.905 15.992 L 26.537 12.919 L 19.183 12.919 L 19.183 52 L 27.483 51.16 L 27.483 38.5 C 29.163 40.391 31.343 41.389 34.101 41.389 C 40.903 41.389 44.817 35.139 44.817 26.629 C 44.817 17.673 41.902 12 34.626 12 Z M 32.053 18.12 C 34.679 18.12 36.255 19.905 36.255 26.734 C 36.255 32.906 34.521 35.296 31.58 35.296 C 29.82 35.296 28.638 34.534 27.483 32.854 L 27.483 21.271 C 28.664 19.354 30.109 18.12 32.053 18.12 Z" fill="#00F29B" fill-rule="nonzero"/>
</svg>
